<?xml version="1.0" encoding="utf-8"?>
<!-- Generator: Adobe Illustrator 18.1.0, SVG Export Plug-In . SVG Version: 6.00 Build 0)  -->
<svg version="1.1" xmlns="http://www.w3.org/2000/svg" xmlns:xlink="http://www.w3.org/1999/xlink" x="0px" y="0px"
	 viewBox="0 0 60 60" enable-background="new 0 0 60 60" xml:space="preserve">
<g id="Ebene_2">
	<rect fill="#522974" width="60" height="60"/>
</g>
<g id="Ebene_1">
	<polygon fill="#FFFFFF" points="47.1,22.9 47.1,12.9 44.3,12.9 44.3,12.9 37.1,12.9 37.1,15.7 44.3,15.7 44.3,22.9 	"/>
	<g>
		<circle fill="#FFFFFF" cx="38.6" cy="30" r="4.3"/>
		<path fill="#FFFFFF" d="M47.1,44.3c0-3.9-3.8-7.1-8.6-7.1S30,40.3,30,44.3v2.9h17.1V44.3z"/>
	</g>
	<polygon fill="#FFFFFF" points="22.9,47.1 22.9,44.3 15.7,44.3 15.7,37.1 12.9,37.1 12.9,47.1 15.7,47.1 15.7,47.1 	"/>
	<g>
		<circle fill="#FFFFFF" cx="21.4" cy="17.1" r="4.3"/>
		<path fill="#FFFFFF" d="M30,31.4c0-3.9-3.8-7.1-8.6-7.1s-8.6,3.2-8.6,7.1v2.9H30V31.4z"/>
	</g>
</g>
</svg>
