<?xml version="1.0" encoding="UTF-8" standalone="no"?>
<svg
   xmlns:dc="http://purl.org/dc/elements/1.1/"
   xmlns:cc="http://creativecommons.org/ns#"
   xmlns:rdf="http://www.w3.org/1999/02/22-rdf-syntax-ns#"
   xmlns:svg="http://www.w3.org/2000/svg"
   xmlns="http://www.w3.org/2000/svg"
   xmlns:sodipodi="http://sodipodi.sourceforge.net/DTD/sodipodi-0.dtd"
   xmlns:inkscape="http://www.inkscape.org/namespaces/inkscape"
   viewBox="0 0 384 512"
   version="1.1"
   id="svg4"
   sodipodi:docname="map-marker.svg"
   inkscape:version="0.92.2 5c3e80d, 2017-08-06">
  <metadata
     id="metadata10">
    <rdf:RDF>
      <cc:Work
         rdf:about="">
        <dc:format>image/svg+xml</dc:format>
        <dc:type
           rdf:resource="http://purl.org/dc/dcmitype/StillImage" />
      </cc:Work>
    </rdf:RDF>
  </metadata>
  <defs
     id="defs8">
    <clipPath
       id="a">
      <path
         d="M 0,230.287 H 737.008 V 0 H 0 Z"
         id="path102" />
    </clipPath>
  </defs>
  <sodipodi:namedview
     pagecolor="#ffffff"
     bordercolor="#666666"
     borderopacity="1"
     objecttolerance="10"
     gridtolerance="10"
     guidetolerance="10"
     inkscape:pageopacity="0"
     inkscape:pageshadow="2"
     inkscape:window-width="2153"
     inkscape:window-height="1299"
     id="namedview6"
     showgrid="false"
     inkscape:zoom="1.4854022"
     inkscape:cx="296.5226"
     inkscape:cy="237.90599"
     inkscape:window-x="8"
     inkscape:window-y="0"
     inkscape:window-maximized="0"
     inkscape:current-layer="svg4" />
  <path
     d="M172.268 501.67C26.97 291.031 0 269.413 0 192 0 85.961 85.961 0 192 0s192 85.961 192 192c0 77.413-26.97 99.031-172.268 309.67-9.535 13.774-29.93 13.773-39.464 0z"
     id="path2"
     style="fill:#5a2572;fill-opacity:1" />
  <g
     transform="matrix(6.0186017,0,0,-6.0186017,-1459.8447,1401.5558)"
     id="g114"
     style="fill:#ffffff">
    <g
       clip-path="url(#a)"
       id="g112"
       style="fill:#ffffff">
      <path
         style="fill:#ffffff;stroke-width:1.33324635"
         d="M 326.44531,0.00585938 V 23.632812 h 7.94727 c -1.5999,-1.805215 -2.54883,-4.187604 -2.54883,-6.662109 0,-5.982276 5.00899,-10.7617186 11.16992,-10.7617186 2.66516,0 5.09286,0.8792845 7.05274,2.3671875 V 0.00585938 Z m 27.87696,0 V 8.5761719 c 1.95453,-1.487903 4.40624,-2.3671875 7.05273,-2.3671875 6.1636,0 11.14258,4.7794426 11.14258,10.7617186 0,2.474505 -0.92005,4.856894 -2.47461,6.662109 h 7.89648 V 0.00585938 Z M 343.01367,10.169922 c -3.88508,0 -7.08789,3.001216 -7.08789,6.792969 0,3.631763 3.20281,6.65625 7.08789,6.65625 h 7.05274 v -6.65625 c 0,-3.791753 -3.14899,-6.792969 -7.05274,-6.792969 z m 18.37695,0 c -3.87041,0 -7.0371,3.001216 -7.0371,6.792969 v 6.65625 h 7.0371 c 3.95041,0 7.06836,-3.024487 7.06836,-6.65625 0,-3.791753 -3.11795,-6.792969 -7.06836,-6.792969 z m -34.94531,17.748047 v 23.626953 h 23.6211 V 27.917969 Z m 27.87696,0 v 23.626953 h 23.62109 V 27.917969 Z"
         id="path110"
         inkscape:connector-curvature="0"
         transform="matrix(0.75004892,0,0,-0.75004892,10.491363,219.29048)" />
    </g>
  </g>
</svg>
