<?xml version="1.0" encoding="utf-8"?>
<!-- Generator: Adobe Illustrator 18.1.0, SVG Export Plug-In . SVG Version: 6.00 Build 0)  -->
<svg version="1.1" xmlns="http://www.w3.org/2000/svg" xmlns:xlink="http://www.w3.org/1999/xlink" x="0px" y="0px"
	 viewBox="0 0 120 120" enable-background="new 0 0 120 120" xml:space="preserve">
<g id="Ebene_2">
	<rect fill="#522974" width="120" height="120"/>
</g>
<g id="Ebene_1">
	<g>
		<path fill="#FFFFFF" d="M93.3,28.6H26.7c-5.3,0-9.6,4.3-9.6,12.5v43.7c0,2.4,4.3,6.7,9.6,6.7h4.7v11.4l11.4-11.4h50.4
			c5.3,0,9.6-4.3,9.6-9.6V38.1C102.9,32.9,98.6,28.6,93.3,28.6z M41.4,74.3c-2.4,0-4.3-1.9-4.3-4.3c0-2.4,1.9-4.3,4.3-4.3
			c2.4,0,4.3,1.9,4.3,4.3C45.7,72.4,43.8,74.3,41.4,74.3z M60,74.3c-2.4,0-4.3-1.9-4.3-4.3c0-2.4,1.9-4.3,4.3-4.3
			c2.4,0,4.3,1.9,4.3,4.3C64.3,72.4,62.4,74.3,60,74.3z M78.6,74.3c-2.4,0-4.3-1.9-4.3-4.3c0-2.4,1.9-4.3,4.3-4.3
			c2.4,0,4.3,1.9,4.3,4.3C82.9,72.4,80.9,74.3,78.6,74.3z"/>
	</g>
</g>
</svg>
