<?xml version="1.0" encoding="utf-8"?>
<svg version="1.1"
	 id="Layer_1" image-rendering="optimizeQuality" text-rendering="geometricPrecision" shape-rendering="geometricPrecision"
	 xmlns="http://www.w3.org/2000/svg" xmlns:xlink="http://www.w3.org/1999/xlink" x="0px" y="0px" viewBox="0 0 480 505"
	 style="enable-background:new 0 0 480 505;" xml:space="preserve">
<style type="text/css">
	.st0{fill:#ffffff;}
</style>
<title>gift icon</title>
<desc>gift icon from the IconExperience.com I-Collection. Copyright by INCORS GmbH (www.incors.com).</desc>
<path id="curve28" class="st0" d="M63.4,125c24.6,17.3,85.7,20.8,116.6,23.2V225H0V125H63.4z M201.2,139.8c-18-1.3-36-2.7-53.9-4.5
	c-86.8-8.8-89.7-20.5-99.9-62.6c-1.2-5.1-2.6-10.8-4.5-17.6c-5.9-20.9-3.8-35.3,3.8-44.4c16.4-19.3,50.4-8.1,69.8,0.2
	c36.4,15.6,79.9,46.7,107.4,77.5c9.9-4.4,21.4-4.5,31.4-0.4c27.5-30.6,70.8-61.5,107-77.1c19.4-8.3,53.5-19.5,69.8-0.2
	c7.7,9.1,9.8,23.5,3.9,44.4c-1.9,6.8-3.3,12.5-4.5,17.6c-10.2,41.8-13.1,53.6-98.2,62.4c-18.2,1.9-36.3,3.3-54.5,4.6
	c-1.7,3.2-5,5.3-8.8,5.3h-60C206.2,145,202.9,142.9,201.2,139.8z M366.4,84.7c-25.2,6.9-56,20.9-81.3,34.5
	c43.1-3.2,71.1-6.2,89.6-10.4c16.6-3.8,24.4-8.4,28.8-15.2c1.7-7.9,1.1-12-7.9-12.9C388.1,79.9,378,81.5,366.4,84.7z M194.9,119.3
	c-25.5-13.7-56.5-27.7-82-34.6c-11.8-3.2-22-4.8-29.5-4c-9,0.9-9.8,4.9-8.1,12.9c4.4,6.8,12.3,11.4,28.9,15.2
	C122.8,113.1,151.2,116,194.9,119.3z M180,245v260H0V245H180z M200,152.3c2.9,1.7,6.4,2.7,10,2.7h60c3.6,0,7.1-1,10-2.7V505h-80
	V152.3z M415.5,125H480v100H300v-76.9C330.3,145.7,390.3,142.7,415.5,125z M480,245v260H300V245H480z"/>
</svg>
