<?xml version="1.0" encoding="utf-8"?>
<!-- Generator: Adobe Illustrator 18.1.0, SVG Export Plug-In . SVG Version: 6.00 Build 0)  -->
<svg version="1.1" xmlns="http://www.w3.org/2000/svg" xmlns:xlink="http://www.w3.org/1999/xlink" x="0px" y="0px"
	 viewBox="0 0 60 60" enable-background="new 0 0 60 60" xml:space="preserve">
<g id="Ebene_2">
	<rect y="0" fill="#522974" width="60" height="60"/>
</g>
<g id="Ebene_1">
	<g>
		<rect x="8.6" y="12.9" fill="#FFFFFF" width="31.4" height="5.7"/>
		<path fill="#FFFFFF" d="M8.6,45.7h17.8c-0.4-1.4-0.7-2.8-0.7-4.3c0-7.9,6.4-14.3,14.3-14.3c0,0,0,0,0,0v-5.7H8.6V45.7z M28.6,24.3
			h2.9v2.9h-2.9V24.3z M22.9,24.3h2.9v2.9h-2.9V24.3z M22.9,30h2.9v2.9h-2.9V30z M17.1,24.3H20v2.9h-2.9V24.3z M17.1,30H20v2.9h-2.9
			V30z M17.1,35.7H20v2.9h-2.9V35.7z M11.4,30h2.9v2.9h-2.9V30z M11.4,35.7h2.9v2.9h-2.9V35.7z"/>
	</g>
	<path fill="#FFFFFF" d="M40,30c-6.3,0-11.4,5.1-11.4,11.4c0,6.3,5.1,11.4,11.4,11.4s11.4-5.1,11.4-11.4C51.4,35.1,46.3,30,40,30z
		 M43.3,46.7L38.6,42v-6.3h2.9v5.1l3.9,3.9L43.3,46.7z"/>
</g>
</svg>
