<?xml version="1.0" encoding="utf-8"?>
<!-- Generator: Adobe Illustrator 18.1.0, SVG Export Plug-In . SVG Version: 6.00 Build 0)  -->
<svg version="1.1" xmlns="http://www.w3.org/2000/svg" xmlns:xlink="http://www.w3.org/1999/xlink" x="0px" y="0px"
	 viewBox="0 0 120 120" enable-background="new 0 0 120 120" xml:space="preserve">
<g id="Ebene_2">
</g>
<g id="Ebene_1">
	<rect fill="#522974" width="120" height="120"/>
	<g>
		<path fill="#FFFFFF" d="M82.5,81.5c-1.8,5.6-4.2,10.4-7.1,14.1c7.1-3,13.2-7.9,17.5-14.1L82.5,81.5z"/>
		<path fill="#FFFFFF" d="M62.9,98.2c5.5-1.7,10.3-7.9,13.5-16.7H62.9V98.2z"/>
		<path fill="#FFFFFF" d="M100,61.5H85.8c-0.2,5.1-0.8,9.9-1.8,14.3h12.2C98.3,71.4,99.7,66.6,100,61.5z"/>
		<path fill="#FFFFFF" d="M62.9,55.7H80c-0.2-5.1-0.9-9.9-2-14.3H62.9V55.7z"/>
		<path fill="#FFFFFF" d="M92.9,35.7c-4.4-6.2-10.4-11.2-17.5-14.1c2.9,3.8,5.3,8.6,7.1,14.1H92.9z"/>
		<path fill="#FFFFFF" d="M62.9,18.9v16.7h13.5C73.2,26.9,68.4,20.6,62.9,18.9z"/>
		<path fill="#FFFFFF" d="M96.2,41.4H84c1,4.5,1.6,9.3,1.8,14.3H100C99.7,50.6,98.3,45.8,96.2,41.4z"/>
		<path fill="#FFFFFF" d="M62.9,75.8l15.2,0c1.1-4.4,1.8-9.3,2-14.3H62.9V75.8z"/>
		<path fill="#FFFFFF" d="M44.7,21.5c-7.1,3-13.2,7.9-17.5,14.1h10.4C39.4,30.1,41.8,25.3,44.7,21.5z"/>
		<path fill="#FFFFFF" d="M57.2,41.4H42c-1.1,4.4-1.8,9.3-2,14.3h17.1V41.4z"/>
		<path fill="#FFFFFF" d="M20.1,55.7h14.2c0.2-5.1,0.8-9.9,1.8-14.3H23.8C21.7,45.8,20.4,50.6,20.1,55.7z"/>
		<path fill="#FFFFFF" d="M57.2,18.9c-5.5,1.7-10.3,7.9-13.5,16.7h13.5V18.9z"/>
		<path fill="#FFFFFF" d="M57.2,61.5H40.1c0.2,5.1,0.9,9.9,2,14.3h15.2V61.5z"/>
		<path fill="#FFFFFF" d="M23.8,75.8h12.2c-1-4.5-1.6-9.3-1.8-14.3H20.1C20.4,66.6,21.7,71.4,23.8,75.8z"/>
		<path fill="#FFFFFF" d="M57.2,98.2V81.5H43.7C46.8,90.3,51.7,96.6,57.2,98.2z"/>
		<path fill="#FFFFFF" d="M44.7,95.6c-2.9-3.8-5.3-8.6-7.1-14.1l-10.4,0C31.5,87.7,37.6,92.7,44.7,95.6z"/>
	</g>
</g>
</svg>
