<svg xmlns="http://www.w3.org/2000/svg" viewBox="0 0 539.848 123.135" height="123.13" width="539.85"><defs><clipPath id="a"><path d="M0 230.287h737.008V0H0z"/></clipPath></defs><g fill="#5a2572" id="rknText" aria-label="Rhein-Kreis Neuss"><path d="M.008 75.226v47.185h6.27v-20.156H21.59q2.31 0 3.696.727 1.386.66 2.244 1.85.858 1.124 1.254 2.71.396 1.52.66 3.238.33 1.718.396 3.502.066 1.785.132 3.37.066 1.52.264 2.776.264 1.256.924 1.983h6.996q-.99-1.19-1.518-2.71-.462-1.586-.726-3.304-.264-1.718-.33-3.502-.066-1.785-.198-3.503-.198-1.718-.594-3.304-.33-1.586-1.122-2.842-.726-1.321-2.046-2.247-1.254-.925-3.3-1.321v-.132q4.29-1.19 6.204-4.428 1.98-3.238 1.98-7.534 0-5.75-3.828-9.054-3.762-3.304-10.494-3.304zm19.338 21.742H6.278V80.513h15.576q4.422 0 6.402 2.247 1.98 2.247 1.98 5.815 0 2.578-.924 4.23-.858 1.586-2.376 2.577-1.452.925-3.432 1.256-1.98.33-4.158.33zM44.33 75.226v47.185h5.61v-19.297q0-2.313.595-4.23.66-1.982 1.914-3.436t3.102-2.247q1.914-.793 4.488-.793 3.234 0 5.082 1.85 1.848 1.851 1.848 5.023v23.13h5.61V99.942q0-2.776-.594-5.022-.528-2.313-1.914-3.966-1.386-1.652-3.63-2.577-2.244-.925-5.61-.925-1.518 0-3.168.33-1.584.33-3.102 1.058-1.452.66-2.64 1.784-1.188 1.057-1.848 2.643h-.132v-18.04zM104.764 102.057H85.162q.132-1.983.858-3.701.726-1.784 1.98-3.106 1.254-1.322 2.97-2.049 1.782-.793 3.96-.793 2.112 0 3.828.793 1.782.727 3.036 2.049 1.32 1.256 2.046 3.04.792 1.784.924 3.767zm5.412 9.516h-5.544q-.726 3.37-3.036 5.022-2.244 1.653-5.808 1.653-2.772 0-4.818-.926-2.046-.925-3.366-2.445-1.32-1.586-1.914-3.568-.594-2.049-.528-4.296h25.542q.132-3.106-.594-6.542-.66-3.437-2.508-6.344-1.782-2.908-4.818-4.759-2.97-1.916-7.524-1.916-3.498 0-6.468 1.322-2.904 1.321-5.082 3.7-2.112 2.38-3.3 5.618-1.188 3.238-1.188 7.137.132 3.899 1.122 7.203 1.056 3.304 3.102 5.683 2.046 2.38 5.016 3.701 3.036 1.322 7.128 1.322 5.808 0 9.636-2.908 3.828-2.908 4.95-8.657zM122.46 82.1v-6.874h-5.61V82.1zm-5.61 6.145v34.166h5.61V88.245zM131.215 88.245v34.166h5.61v-19.297q0-2.313.594-4.23.66-1.982 1.914-3.436t3.102-2.247q1.914-.793 4.488-.793 3.234 0 5.082 1.85 1.848 1.851 1.848 5.023v23.13h5.61V99.942q0-2.776-.594-5.022-.528-2.313-1.914-3.966-1.386-1.652-3.63-2.577-2.244-.925-5.61-.925-7.59 0-11.088 6.212h-.132v-5.419zM167.03 101.396v5.287h19.074v-5.287zM194.53 75.226v47.185h6.27V105.89l7.855-7.336 17.028 23.857h7.92l-20.658-28.152 19.866-19.033h-8.118l-23.892 23.526V75.226zM237.495 88.245v34.166h5.61v-15.2q0-3.304.66-5.815.66-2.577 2.112-4.362 1.452-1.784 3.828-2.71 2.376-.924 5.743-.924v-5.948q-4.555-.132-7.525 1.85-2.97 1.983-5.016 6.146h-.132v-7.203zM282.192 102.057H262.59q.132-1.983.858-3.701.726-1.784 1.98-3.106 1.254-1.322 2.97-2.049 1.782-.793 3.96-.793 2.112 0 3.828.793 1.782.727 3.036 2.049 1.32 1.256 2.046 3.04.792 1.784.924 3.767zm5.413 9.516h-5.545q-.726 3.37-3.036 5.022-2.244 1.653-5.808 1.653-2.772 0-4.818-.926-2.046-.925-3.366-2.445-1.32-1.586-1.914-3.568-.594-2.049-.528-4.296h25.543q.132-3.106-.594-6.542-.66-3.437-2.508-6.344-1.783-2.908-4.819-4.759-2.97-1.916-7.524-1.916-3.498 0-6.468 1.322-2.904 1.321-5.082 3.7-2.112 2.38-3.3 5.618-1.188 3.238-1.188 7.137.132 3.899 1.122 7.203 1.056 3.304 3.102 5.683 2.046 2.38 5.016 3.701 3.036 1.322 7.128 1.322 5.808 0 9.636-2.908 3.829-2.908 4.95-8.657zM299.837 82.1v-6.874h-5.61V82.1zm-5.61 6.145v34.166h5.61V88.245zM312.025 111.64h-5.61q.132 3.171 1.32 5.418 1.188 2.18 3.168 3.569 1.98 1.321 4.554 1.916 2.574.595 5.412.595 2.574 0 5.148-.529 2.64-.462 4.686-1.718 2.112-1.256 3.366-3.304 1.32-2.049 1.32-5.155 0-2.445-.99-4.097-.924-1.652-2.508-2.71-1.518-1.123-3.564-1.784-1.98-.66-4.092-1.123-1.98-.463-3.96-.86-1.98-.462-3.564-1.057-1.584-.66-2.64-1.586-.99-.991-.99-2.445 0-1.322.66-2.115.66-.859 1.716-1.321 1.056-.53 2.31-.727 1.32-.199 2.574-.199 1.386 0 2.706.33 1.386.265 2.508.926 1.122.66 1.848 1.784.726 1.058.858 2.71h5.61q-.198-3.106-1.32-5.155-1.122-2.115-3.036-3.304-1.848-1.256-4.29-1.718-2.442-.53-5.346-.53-2.244 0-4.554.596-2.244.528-4.092 1.718-1.782 1.123-2.97 2.974-1.122 1.85-1.122 4.427 0 3.305 1.65 5.155t4.092 2.908q2.508.991 5.412 1.586 2.904.529 5.346 1.255 2.508.661 4.158 1.785 1.65 1.123 1.65 3.304 0 1.586-.792 2.643-.792.992-2.046 1.52-1.188.53-2.64.727-1.452.199-2.772.199-1.716 0-3.366-.33-1.584-.331-2.904-1.058-1.254-.793-2.046-2.049-.792-1.322-.858-3.172zM360.756 75.226v47.185h5.94V84.544h.132l24.619 37.867h6.864V75.226h-5.94v38.263h-.132l-24.816-38.263zM431.289 102.057h-19.602q.132-1.983.858-3.701.726-1.784 1.98-3.106 1.254-1.322 2.97-2.049 1.782-.793 3.96-.793 2.112 0 3.828.793 1.782.727 3.036 2.049 1.32 1.256 2.046 3.04.792 1.784.924 3.767zm5.412 9.516h-5.544q-.726 3.37-3.036 5.022-2.244 1.653-5.808 1.653-2.772 0-4.818-.926-2.046-.925-3.366-2.445-1.32-1.586-1.914-3.568-.594-2.049-.528-4.296h25.542q.132-3.106-.594-6.542-.66-3.437-2.508-6.344-1.782-2.908-4.818-4.759-2.97-1.916-7.524-1.916-3.498 0-6.468 1.322-2.904 1.321-5.082 3.7-2.113 2.38-3.3 5.618-1.189 3.238-1.189 7.137.132 3.899 1.122 7.203 1.056 3.304 3.103 5.683 2.046 2.38 5.016 3.701 3.036 1.322 7.128 1.322 5.808 0 9.636-2.908 3.828-2.908 4.95-8.657zM471.293 122.41V88.246h-5.61v19.297q0 2.313-.66 4.295-.594 1.917-1.848 3.37-1.254 1.455-3.168 2.248-1.848.793-4.423.793-3.234 0-5.082-1.85-1.848-1.851-1.848-5.023v-23.13h-5.61v22.469q0 2.775.528 5.088.594 2.247 1.98 3.9 1.386 1.652 3.63 2.577 2.244.859 5.61.859 3.763 0 6.535-1.454 2.772-1.52 4.554-4.692h.132v5.419zM483.215 111.64h-5.61q.132 3.171 1.32 5.418 1.188 2.18 3.168 3.569 1.98 1.321 4.554 1.916 2.574.595 5.412.595 2.574 0 5.148-.529 2.64-.462 4.687-1.718 2.112-1.256 3.366-3.304 1.32-2.049 1.32-5.155 0-2.445-.99-4.097-.924-1.652-2.508-2.71-1.519-1.123-3.565-1.784-1.98-.66-4.092-1.123-1.98-.463-3.96-.86-1.98-.462-3.564-1.057-1.584-.66-2.64-1.586-.99-.991-.99-2.445 0-1.322.66-2.115.66-.859 1.716-1.321 1.056-.53 2.31-.727 1.32-.199 2.574-.199 1.386 0 2.706.33 1.386.265 2.508.926 1.122.66 1.848 1.784.726 1.058.858 2.71h5.61q-.197-3.106-1.32-5.155-1.121-2.115-3.036-3.304-1.848-1.256-4.29-1.718-2.442-.53-5.346-.53-2.244 0-4.554.596-2.244.528-4.092 1.718-1.782 1.123-2.97 2.974-1.122 1.85-1.122 4.427 0 3.305 1.65 5.155t4.092 2.908q2.508.991 5.412 1.586 2.904.529 5.346 1.255 2.508.661 4.158 1.785 1.65 1.123 1.65 3.304 0 1.586-.792 2.643-.792.992-2.046 1.52-1.188.53-2.64.727-1.452.199-2.772.199-1.716 0-3.366-.33-1.584-.331-2.904-1.058-1.254-.793-2.046-2.049-.792-1.322-.858-3.172zM516.216 111.64h-5.61q.132 3.171 1.32 5.418 1.188 2.18 3.168 3.569 1.98 1.321 4.554 1.916 2.574.595 5.412.595 2.574 0 5.148-.529 2.64-.462 4.686-1.718 2.112-1.256 3.366-3.304 1.32-2.049 1.32-5.155 0-2.445-.99-4.097-.924-1.652-2.508-2.71-1.518-1.123-3.564-1.784-1.98-.66-4.092-1.123-1.98-.463-3.96-.86-1.98-.462-3.564-1.057-1.584-.66-2.64-1.586-.99-.991-.99-2.445 0-1.322.66-2.115.66-.859 1.716-1.321 1.056-.53 2.31-.727 1.32-.199 2.574-.199 1.386 0 2.706.33 1.386.265 2.508.926 1.122.66 1.848 1.784.726 1.058.858 2.71h5.61q-.198-3.106-1.32-5.155-1.122-2.115-3.036-3.304-1.848-1.256-4.29-1.718-2.442-.53-5.346-.53-2.244 0-4.554.596-2.244.528-4.092 1.718-1.782 1.123-2.97 2.974-1.122 1.85-1.122 4.427 0 3.305 1.65 5.155t4.092 2.908q2.508.991 5.412 1.586 2.904.529 5.346 1.255 2.508.661 4.158 1.785 1.65 1.123 1.65 3.304 0 1.586-.792 2.643-.792.992-2.046 1.52-1.188.53-2.64.727-1.452.199-2.772.199-1.716 0-3.366-.33-1.584-.331-2.904-1.058-1.254-.793-2.046-2.049-.792-1.322-.858-3.172z"/></g><g clip-path="url(#a)" id="dw" aria-label="Diakonie" transform="matrix(1.3333 0 0 -1.3333 -14 292.38)"><path fill="#009bdc" d="M276.25 180.63h17.717v17.721H276.25zm-20.908 0h17.716v17.721h-17.716zm20.908 32.228a8.712 8.712 0 005.29 1.775c4.623 0 8.358-3.584 8.358-8.071a7.711 7.711 0 00-1.857-4.998h5.923v17.722H276.25zm5.302-11.283c2.963 0 5.301 2.268 5.301 4.992 0 2.844-2.338 5.095-5.301 5.095-2.903 0-5.278-2.251-5.278-5.095v-4.992zm-8.494 17.711h-17.716v-17.722h5.96a7.585 7.585 0 00-1.912 4.998c0 4.487 3.757 8.071 8.378 8.071a8.69 8.69 0 005.29-1.775zm0-17.711v4.992c0 2.844-2.362 5.095-5.29 5.095-2.914 0-5.316-2.251-5.316-5.095 0-2.724 2.402-4.992 5.316-4.992zm-44.33-3.782c0 2.596-1.949 4.707-4.711 4.707-3.191 0-5.028-1.677-5.516-4.707zm-10.279-5.574c.267-3.19 2.106-5.464 5.459-5.464 1.732 0 3.631.649 4.499 2.002h10c-2.165-6.058-8.057-8.872-14.444-8.872-8.978 0-15.739 5.305-15.739 14.659 0 8.172 5.947 14.826 14.822 14.826 11.145 0 15.959-6.222 15.959-17.151zm-23.696 16.446h10.714v-28.076h-10.714zm10.714 3.029h-10.714v7.521h10.714zm-44.199-3.029h10.331v-3.569h.108c2.003 2.814 4.87 4.274 9.144 4.274 5.03 0 9.631-3.082 9.631-9.524v-19.258h-10.711v14.716c0 3.245-.379 5.519-3.519 5.519-1.837 0-4.273-.922-4.273-5.41v-14.825h-10.711zm-18.609-7.088c-4.056 0-4.597-3.948-4.597-6.924 0-2.974.541-6.978 4.597-6.978 4.058 0 4.598 4.004 4.598 6.978 0 2.976-.54 6.924-4.598 6.924m0-21.692c-10.55 0-15.31 6.979-15.31 14.768 0 7.793 4.76 14.717 15.31 14.717 10.549 0 15.309-6.924 15.309-14.717 0-7.789-4.76-14.768-15.309-14.768m-45.062 39.33h10.711v-18.664l6.815 8.114h12.118l-10.007-10.604 11.578-17.473h-12.877l-5.733 10.172-1.894-2.054v-8.118H97.597zm-14.551-26.021c-1.3-.649-2.758-1.026-4.221-1.352-2.379-.543-3.624-1.136-3.624-3.027 0-1.303 1.406-2.6 3.355-2.6 2.434 0 4.329 1.46 4.49 4.382zm10.277-6.33c0-2.109.11-4.49 1.3-6.276H83.694c-.268.76-.431 1.894-.378 2.654h-.107c-2.272-2.6-5.573-3.357-9.035-3.357-5.409 0-9.899 2.597-9.899 8.495 0 8.872 10.384 8.547 15.85 9.573 1.46.271 2.921.705 2.921 2.49 0 1.893-1.785 2.597-3.517 2.597-3.299 0-3.948-1.677-4.004-2.869h-9.953c.324 7.902 7.79 9.199 14.444 9.199 13.417 0 13.307-5.574 13.307-10.984zM50.48 208.665h10.711v-28.076H50.48zm10.711 3.029H50.48v7.521h10.711zm-38.787-21.205h4.652c7.411 0 8.493 6.004 8.493 9.629 0 2.436-.758 9.197-9.359 9.197h-3.786zm-11.901 28.726h19.529c12.874 0 17.42-9.52 17.42-19.26 0-11.846-6.277-19.367-19.748-19.367H10.503z"/></g></svg>