<?xml version="1.0" encoding="UTF-8"?>
<svg width="539.85" height="123.13" version="1.1" viewBox="0 0 539.84796 123.13495" xml:space="preserve" xmlns="http://www.w3.org/2000/svg"
     xmlns:cc="http://creativecommons.org/ns#" xmlns:dc="http://purl.org/dc/elements/1.1/" xmlns:rdf="http://www.w3.org/1999/02/22-rdf-syntax-ns#"><metadata><rdf:RDF><cc:Work rdf:about=""><dc:format>image/svg+xml</dc:format><dc:type
        rdf:resource="http://purl.org/dc/dcmitype/StillImage"/><dc:title/></cc:Work></rdf:RDF></metadata>
    <defs><clipPath id="a"><path d="M 0,230.287 H 737.008 V 0 H 0 Z"/></clipPath></defs>
    <g transform="matrix(1.3333 0 0 -1.3333 -14 292.38)"><text id="rknText" transform="matrix(.99873 0 0 -1 6.645 127.48)" fill="#5a2572" font-family="'Helvetica Neue'" font-size="49.565px"><tspan x="0" y="0">Rhein-Kreis Neuss</tspan></text>
        <g clip-path="url(#a)"><path d="m276.25 180.63h17.717v17.721h-17.717zm-20.908 0h17.716v17.721h-17.716zm20.908 32.228c1.466 1.116 3.305 1.775 5.29 1.775 4.623 0 8.358-3.584 8.358-8.071 0-1.856-0.691-3.644-1.857-4.998h5.923v17.722h-17.714zm5.302-11.283c2.963 0 5.301 2.268 5.301 4.992 0 2.844-2.338 5.095-5.301 5.095-2.903 0-5.278-2.251-5.278-5.095v-4.992zm-8.494 17.711h-17.716v-17.722h5.96c-1.2 1.354-1.912 3.142-1.912 4.998 0 4.487 3.757 8.071 8.378 8.071 1.999 0 3.82-0.659 5.29-1.775zm0-17.711v4.992c0 2.844-2.362 5.095-5.29 5.095-2.914 0-5.316-2.251-5.316-5.095 0-2.724 2.402-4.992 5.316-4.992zm-44.33-3.782c0 2.596-1.949 4.707-4.711 4.707-3.191 0-5.028-1.677-5.516-4.707zm-10.279-5.574c0.267-3.19 2.106-5.464 5.459-5.464 1.732 0 3.631 0.649 4.499 2.002h10c-2.165-6.058-8.057-8.872-14.444-8.872-8.978 0-15.739 5.305-15.739 14.659 0 8.172 5.947 14.826 14.822 14.826 11.145 0 15.959-6.222 15.959-17.151zm-23.696 16.446h10.714v-28.076h-10.714zm10.714 3.029h-10.714v7.521h10.714zm-44.199-3.029h10.331v-3.569h0.108c2.003 2.814 4.87 4.274 9.144 4.274 5.03 0 9.631-3.082 9.631-9.524v-19.258h-10.711v14.716c0 3.245-0.379 5.519-3.519 5.519-1.837 0-4.273-0.922-4.273-5.41v-14.825h-10.711zm-18.609-7.088c-4.056 0-4.597-3.948-4.597-6.924 0-2.974 0.541-6.978 4.597-6.978 4.058 0 4.598 4.004 4.598 6.978 0 2.976-0.54 6.924-4.598 6.924m0-21.692c-10.55 0-15.31 6.979-15.31 14.768 0 7.793 4.76 14.717 15.31 14.717 10.549 0 15.309-6.924 15.309-14.717 0-7.789-4.76-14.768-15.309-14.768m-45.062 39.33h10.711v-18.664l6.815 8.114h12.118l-10.007-10.604 11.578-17.473h-12.877l-5.733 10.172-1.894-2.054v-8.118h-10.711zm-14.551-26.021c-1.3-0.649-2.758-1.026-4.221-1.352-2.379-0.543-3.624-1.136-3.624-3.027 0-1.303 1.406-2.6 3.355-2.6 2.434 0 4.329 1.46 4.49 4.382zm10.277-6.33c0-2.109 0.11-4.49 1.3-6.276h-10.929c-0.268 0.76-0.431 1.894-0.378 2.654h-0.107c-2.272-2.6-5.573-3.357-9.035-3.357-5.409 0-9.899 2.597-9.899 8.495 0 8.872 10.384 8.547 15.85 9.573 1.46 0.271 2.921 0.705 2.921 2.49 0 1.893-1.785 2.597-3.517 2.597-3.299 0-3.948-1.677-4.004-2.869h-9.953c0.324 7.902 7.79 9.199 14.444 9.199 13.417 0 13.307-5.574 13.307-10.984zm-42.843 21.801h10.711v-28.076h-10.711zm10.711 3.029h-10.711v7.521h10.711zm-38.787-21.205h4.652c7.411 0 8.493 6.004 8.493 9.629 0 2.436-0.758 9.197-9.359 9.197h-3.786zm-11.901 28.726h19.529c12.874 0 17.42-9.52 17.42-19.26 0-11.846-6.277-19.367-19.748-19.367h-17.201z" fill="#009bdc"/></g></g></svg>
