<?xml version="1.0" encoding="UTF-8" standalone="no"?>
<svg
   xmlns:dc="http://purl.org/dc/elements/1.1/"
   xmlns:cc="http://creativecommons.org/ns#"
   xmlns:rdf="http://www.w3.org/1999/02/22-rdf-syntax-ns#"
   xmlns:svg="http://www.w3.org/2000/svg"
   xmlns="http://www.w3.org/2000/svg"
   xmlns:sodipodi="http://sodipodi.sourceforge.net/DTD/sodipodi-0.dtd"
   xmlns:inkscape="http://www.inkscape.org/namespaces/inkscape"
   viewBox="0 0 539.84796 123.13495"
   height="123.13495"
   width="539.84796"
   xml:space="preserve"
   id="dwRknLogo"
   version="1.1"
   sodipodi:docname="logo-diakonie-rkn.svg"
   inkscape:version="0.92.2 5c3e80d, 2017-08-06"><metadata
     id="metadata3779"><rdf:RDF><cc:Work
         rdf:about=""><dc:format>image/svg+xml</dc:format><dc:type
           rdf:resource="http://purl.org/dc/dcmitype/StillImage" /><dc:title></dc:title></cc:Work></rdf:RDF></metadata><sodipodi:namedview
     pagecolor="#ffffff"
     bordercolor="#666666"
     borderopacity="1"
     objecttolerance="10"
     gridtolerance="10"
     guidetolerance="10"
     inkscape:pageopacity="0"
     inkscape:pageshadow="2"
     inkscape:window-width="2599"
     inkscape:window-height="1283"
     id="namedview3777"
     showgrid="false"
     fit-margin-top="0"
     fit-margin-left="0"
     fit-margin-right="0"
     fit-margin-bottom="0"
     inkscape:zoom="3.7368421"
     inkscape:cx="271"
     inkscape:cy="62.805617"
     inkscape:window-x="0"
     inkscape:window-y="0"
     inkscape:window-maximized="0"
     inkscape:current-layer="dwRknLogo" /><defs
     id="defs3722"><clipPath
       id="clipPath3740"
       clipPathUnits="userSpaceOnUse"><path
         id="path3738"
         d="M 0,230.287 H 737.008 V 0 H 0 Z"
         inkscape:connector-curvature="0" /></clipPath></defs><g
     transform="matrix(1.3333333,0,0,-1.3333333,-14,292.37866)"
     id="g3726"><text
       id="rknText"
       style="font-variant:normal;font-weight:normal;font-stretch:normal;font-size:49.56470108px;font-family:'Helvetica Neue';writing-mode:lr-tb;fill:#5a2572;fill-opacity:1;fill-rule:nonzero;stroke:none"
       transform="matrix(0.99872893,0,0,-1,6.645,127.478)"><tspan
         y="0"
         x="0"
         id="tspan3730">Rhein-Kreis Neuss</tspan></text>
<g
       id="g3734"><g
         clip-path="url(#clipPath3740)"
         id="g3736"><path
           id="path3742"
           style="fill:#009bdc;fill-opacity:1;fill-rule:nonzero;stroke:none"
           d="m 276.247,180.628 h 17.717 v 17.721 h -17.717 z m -20.908,0 h 17.716 v 17.721 h -17.716 z m 20.908,32.228 c 1.466,1.116 3.305,1.775 5.29,1.775 4.623,0 8.358,-3.584 8.358,-8.071 0,-1.856 -0.691,-3.644 -1.857,-4.998 h 5.923 v 17.722 h -17.714 z m 5.302,-11.283 c 2.963,0 5.301,2.268 5.301,4.992 0,2.844 -2.338,5.095 -5.301,5.095 -2.903,0 -5.278,-2.251 -5.278,-5.095 v -4.992 z m -8.494,17.711 h -17.716 v -17.722 h 5.96 c -1.2,1.354 -1.912,3.142 -1.912,4.998 0,4.487 3.757,8.071 8.378,8.071 1.999,0 3.82,-0.659 5.29,-1.775 z m 0,-17.711 v 4.992 c 0,2.844 -2.362,5.095 -5.29,5.095 -2.914,0 -5.316,-2.251 -5.316,-5.095 0,-2.724 2.402,-4.992 5.316,-4.992 z m -44.33,-3.782 c 0,2.596 -1.949,4.707 -4.711,4.707 -3.191,0 -5.028,-1.677 -5.516,-4.707 z m -10.279,-5.574 c 0.267,-3.19 2.106,-5.464 5.459,-5.464 1.732,0 3.631,0.649 4.499,2.002 h 10 c -2.165,-6.058 -8.057,-8.872 -14.444,-8.872 -8.978,0 -15.739,5.305 -15.739,14.659 0,8.172 5.947,14.826 14.822,14.826 11.145,0 15.959,-6.222 15.959,-17.151 z m -23.696,16.446 h 10.714 V 180.587 H 194.75 Z m 10.714,3.029 H 194.75 v 7.521 h 10.714 z m -44.199,-3.029 h 10.331 v -3.569 h 0.108 c 2.003,2.814 4.87,4.274 9.144,4.274 5.03,0 9.631,-3.082 9.631,-9.524 v -19.258 h -10.711 v 14.716 c 0,3.245 -0.379,5.519 -3.519,5.519 -1.837,0 -4.273,-0.922 -4.273,-5.41 v -14.825 h -10.711 z m -18.609,-7.088 c -4.056,0 -4.597,-3.948 -4.597,-6.924 0,-2.974 0.541,-6.978 4.597,-6.978 4.058,0 4.598,4.004 4.598,6.978 0,2.976 -0.54,6.924 -4.598,6.924 m 0,-21.692 c -10.55,0 -15.31,6.979 -15.31,14.768 0,7.793 4.76,14.717 15.31,14.717 10.549,0 15.309,-6.924 15.309,-14.717 0,-7.789 -4.76,-14.768 -15.309,-14.768 m -45.062,39.33 h 10.711 v -18.664 l 6.815,8.114 h 12.118 l -10.007,-10.604 11.578,-17.473 h -12.877 l -5.733,10.172 -1.894,-2.054 v -8.118 H 97.594 Z M 83.043,193.192 c -1.3,-0.649 -2.758,-1.026 -4.221,-1.352 -2.379,-0.543 -3.624,-1.136 -3.624,-3.027 0,-1.303 1.406,-2.6 3.355,-2.6 2.434,0 4.329,1.46 4.49,4.382 z m 10.277,-6.33 c 0,-2.109 0.11,-4.49 1.3,-6.276 H 83.691 c -0.268,0.76 -0.431,1.894 -0.378,2.654 h -0.107 c -2.272,-2.6 -5.573,-3.357 -9.035,-3.357 -5.409,0 -9.899,2.597 -9.899,8.495 0,8.872 10.384,8.547 15.85,9.573 1.46,0.271 2.921,0.705 2.921,2.49 0,1.893 -1.785,2.597 -3.517,2.597 -3.299,0 -3.948,-1.677 -4.004,-2.869 h -9.953 c 0.324,7.902 7.79,9.199 14.444,9.199 13.417,0 13.307,-5.574 13.307,-10.984 z M 50.477,208.663 H 61.188 V 180.587 H 50.477 Z m 10.711,3.029 H 50.477 v 7.521 H 61.188 Z M 22.401,190.487 h 4.652 c 7.411,0 8.493,6.004 8.493,9.629 0,2.436 -0.758,9.197 -9.359,9.197 H 22.401 Z M 10.5,219.213 h 19.529 c 12.874,0 17.42,-9.52 17.42,-19.26 0,-11.846 -6.277,-19.367 -19.748,-19.367 H 10.5 Z"
           inkscape:connector-curvature="0" /></g></g></g></svg>